<svg width="133" height="36" viewBox="0 0 133 36" fill="none" xmlns="http://www.w3.org/2000/svg">
<path d="M48.5118 0V35.8272H33.7542H33.506H33.3819L33.506 14.6514H18.5002L33.3819 0H48.5118Z" fill="#EA5614"/>
<path d="M17.9731 35.8241H0L11.8128 24.0343H29.7859L17.9731 35.8241Z" fill="#2B2C84"/>
<path d="M64.1992 20.3757H65.0679L60.8482 9.31845H59.9795L55.7485 20.3757H56.6173L57.6779 17.5599H63.1386L64.1992 20.3757ZM57.9825 16.7701L60.4082 10.3372L62.834 16.7701H57.9825ZM73.7442 20.3757L68.0804 14.6868L73.5975 9.31845H72.4918L67.1777 14.4693V9.31845H66.3428V20.3757H67.1665V14.9272L72.6272 20.3757H73.7442ZM82.7476 20.3757H83.6164L79.3967 9.31845H78.528L74.2857 20.3757H75.1545L76.2151 17.5599H81.6871L82.7476 20.3757ZM76.531 16.7701L78.9567 10.3372L81.3825 16.7701H76.531ZM92.8455 19.5859V9.31845H86.1211V15.6254C86.1211 17.7773 85.6021 18.8991 85.0042 19.5859H84.1354V22.4932H84.9816V20.3757H93.1727V22.4932H94.0189V19.5859H92.8455ZM86.9447 15.6369V10.1083H92.0219V19.5859H85.9744C86.5047 18.8304 86.9447 17.6629 86.9447 15.6369ZM96.4672 19.5859V15.1905H101.454V14.4006H96.4672V10.1083H101.838V9.31845H95.6436V20.3757H101.917V19.5859H96.4672ZM113.335 9.31845H112.297L108.404 15.8543L104.512 9.31845H103.485V20.3757H104.309V10.5547L108.336 17.3424H108.472L112.511 10.5547V20.3757H113.335V9.31845ZM122.733 20.3757H123.557V9.31845H122.823L116.392 18.8304V9.31845H115.569V20.3757H116.279L122.722 10.8637V20.3757H122.733ZM133 9.31845H128.69C126.919 9.31845 125.486 10.7836 125.486 12.5921C125.486 14.2404 126.704 15.614 128.273 15.82L125.17 20.3871H126.106L129.187 15.8543H132.176V20.3757H133V9.31845ZM128.69 15.0531C127.381 15.0531 126.31 13.9428 126.31 12.5921C126.31 11.2186 127.381 10.1083 128.69 10.1083H132.176V15.0531H128.69ZM64.6505 24.7711H56.8655V35.8283H57.6891V25.5609H63.8043V35.8283H64.6505V24.7711ZM71.6908 36C73.7329 36 75.5043 34.924 76.3956 33.2986L75.6622 32.8751C74.9514 34.2601 73.417 35.1987 71.6908 35.1987C68.825 35.1987 66.8506 33.0239 66.8506 30.2997C66.8506 27.5869 68.825 25.4006 71.6908 25.4006C73.4057 25.4006 74.9176 26.3163 75.6284 27.6785L76.3617 27.2549C75.4591 25.641 73.6991 24.5994 71.6908 24.5994C68.3737 24.5994 66.0269 27.1405 66.0269 30.2997C66.0156 33.4589 68.3737 36 71.6908 36ZM81.8112 29.3038H78.6972V25.5609H84.1467V24.7711H77.8736V35.8283H81.8112C83.5825 35.8283 85.038 34.3632 85.038 32.5546C85.0267 30.769 83.5825 29.3038 81.8112 29.3038ZM81.8112 35.0385H78.6972V30.0937H81.8112C83.12 30.0937 84.1918 31.2039 84.1918 32.5546C84.1918 33.9282 83.12 35.0385 81.8112 35.0385Z" fill="#050506"/>
</svg>
